<svg xmlns="http://www.w3.org/2000/svg" id="Layer_1" data-name="Layer 1" viewBox="0 0 288 82.67"><defs><style>.cls-1,.cls-3{fill:#2f5096;}.cls-2{fill:#25bcb9;}.cls-3{font-size:7.72px;font-family:MyriadPro-Bold, Myriad Pro;font-weight:700;}.cls-4{letter-spacing:0em;}.cls-5{fill:#fff;}.cls-6{font-size:11.24px;fill:#2c71b9;font-family:OpenSans, Open Sans;}.cls-7{letter-spacing:-0.02em;}.cls-8{letter-spacing:-0.02em;}.cls-9{letter-spacing:-0.02em;}.cls-10{letter-spacing:-0.02em;}.cls-11{letter-spacing:-0.02em;}</style></defs><title>logo</title><path class="cls-1" d="M0,43.74,37.11,42.5l5.22-4.27a2.64,2.64,0,0,1,1-.27,1.6,1.6,0,0,1,1.21.39,5.16,5.16,0,0,1,.89,1c.15.32.86,1.69.86,1.69l3.21-18.39,1.25-6.95a3.79,3.79,0,0,1,.88-1.6c.6-.5,1.46-1.18,2.35,0a6.69,6.69,0,0,1,1,3l4.18,22.31,3.23,17.27,3.3-15.11A5.1,5.1,0,0,1,67,38.79c1-1,1.63.06,1.63.06a6.87,6.87,0,0,1,.66,1.1l2.28,4.75,2.76-1.84,98.63.86L75,44.9l-2.44,2.55a2.57,2.57,0,0,1-1.28.69c-.59,0-.89-1-.89-1L68.17,43l-3.71,21.3a13.1,13.1,0,0,1-.74,2.46c-.38.72-.8,1.41-1.4,1.41s-1.48-1.44-1.84-2.63-.82-4.74-.82-4.74l-4-21.72L53,24.08,49.07,41.67a5.78,5.78,0,0,1-1.22,2.7,2.41,2.41,0,0,1-2.17.77,1.94,1.94,0,0,1-1.15-.8c-.54-.7-1.91-3.08-1.91-3.08l-4.45,3.38Z"></path><polygon class="cls-2" points="128.34 44.1 134.4 26.03 141.31 26.03 130.77 54.97 123.71 54.97 122.53 38.57 116.26 54.97 109.2 54.97 107.74 26.03 114.39 26.03 114.79 44.01 121.45 26.03 127.26 26.03 128.34 44.1"></polygon><path class="cls-2" d="M146.89,55.36A10,10,0,0,1,141.73,54a8.57,8.57,0,0,1-3.43-3.74,10,10,0,0,1-.91-5.27l.06-.55a13.21,13.21,0,0,1,3.7-8.41,10.27,10.27,0,0,1,7.75-3,8.44,8.44,0,0,1,4.76,1.41,7.93,7.93,0,0,1,2.89,3.76,11.54,11.54,0,0,1,.6,5.38l-.38,2.73H143.91a4.21,4.21,0,0,0,1,2.75,3.53,3.53,0,0,0,2.66,1.11A6.81,6.81,0,0,0,152.67,48l2.75,3.63a8.07,8.07,0,0,1-3.39,2.7,11.79,11.79,0,0,1-4.78,1Zm1.59-17.13a3.4,3.4,0,0,0-2.42.87,7.36,7.36,0,0,0-1.79,3h6.57l.12-.58a4.41,4.41,0,0,0,0-1.3,2.32,2.32,0,0,0-2.52-2"></path><path class="cls-2" d="M177,44.26a15.59,15.59,0,0,1-3.09,8.22,7.78,7.78,0,0,1-6.51,2.91,5.75,5.75,0,0,1-4.91-2.67L161.68,55h-5.94l5.32-30.54h6.57l-2.14,10.8a6.53,6.53,0,0,1,4.86-2.17,6.11,6.11,0,0,1,4.94,2.26,9.8,9.8,0,0,1,1.88,6,22.35,22.35,0,0,1-.1,2.48Zm-6.53-.39a21.54,21.54,0,0,0,.19-2.31c0-2.13-.77-3.24-2.3-3.33A3.92,3.92,0,0,0,165,40l-1.56,8.58a2.65,2.65,0,0,0,2.72,1.68c2.14.06,3.49-1.32,4-4.17l.29-1.77Z"></path><path class="cls-1" d="M200.61,45.1a10.47,10.47,0,0,1-2,5.42A11.51,11.51,0,0,1,194,54.16a14.39,14.39,0,0,1-6.16,1.2,9.56,9.56,0,0,1-7.16-2.92,11.72,11.72,0,0,1-2.85-7.65,24.91,24.91,0,0,1,.7-7,18.45,18.45,0,0,1,2.9-6.6A13.2,13.2,0,0,1,186.17,27a12.43,12.43,0,0,1,6-1.35,10.46,10.46,0,0,1,7.52,2.85,11.13,11.13,0,0,1,3,7.61l-6.81,0a5.55,5.55,0,0,0-1-3.77,4.24,4.24,0,0,0-3.15-1.22c-3.6-.11-5.78,2.67-6.57,8.35a45.63,45.63,0,0,0-.54,5.51c-.07,3.26,1.14,4.93,3.63,5a5.36,5.36,0,0,0,3.86-1.19A6,6,0,0,0,194,45.19Z"></path><path class="cls-1" d="M212.11,55a5.77,5.77,0,0,1-.28-2,6.62,6.62,0,0,1-5.29,2.35,6.52,6.52,0,0,1-4.67-1.86,5.56,5.56,0,0,1-1.73-4.44,6.29,6.29,0,0,1,2.93-5.37,13.89,13.89,0,0,1,7.74-1.88l2.2,0,.24-1.2.08-1.06a1.72,1.72,0,0,0-1.82-1.87c-1.44,0-2.32.77-2.65,2.37l-6.59,0a6.2,6.2,0,0,1,1.42-3.76,8.34,8.34,0,0,1,3.59-2.48,12.61,12.61,0,0,1,4.81-.8,9.71,9.71,0,0,1,4.3,1,6.33,6.33,0,0,1,2.76,2.68,6.76,6.76,0,0,1,.7,4l-1.61,10.11-.1,1.23a5.28,5.28,0,0,0,.38,2.51l0,.38Zm-3.75-4.34a4.2,4.2,0,0,0,3.53-1.77l.66-3.45-1.7,0a4.57,4.57,0,0,0-2.71.93,3.5,3.5,0,0,0-1.34,2.41,1.72,1.72,0,0,0,.31,1.35,1.56,1.56,0,0,0,1.25.56"></path><path class="cls-1" d="M234.5,39.52c-.69-.1-1.37-.17-2-.2a5.12,5.12,0,0,0-4.51,2L225.53,55H219l3.75-21.52h6.13l-.5,2.83c1.41-2.18,3.08-3.26,5-3.26a9.08,9.08,0,0,1,2,.27Z"></path><path class="cls-1" d="M232.6,44.18A15.55,15.55,0,0,1,235.71,36a7.75,7.75,0,0,1,6.51-3,5.92,5.92,0,0,1,4.57,2.31l2.1-10.94h6.58L250.16,55h-5.85l.28-2.33a6.79,6.79,0,0,1-5.37,2.75,6,6,0,0,1-4.88-2.3A10.16,10.16,0,0,1,232.46,47a17.68,17.68,0,0,1,.08-2.43Zm6.55.46a14,14,0,0,0-.14,2.22c0,2.2.74,3.31,2.23,3.36a4.19,4.19,0,0,0,3.45-1.85l1.48-8.25a2.66,2.66,0,0,0-2.63-1.89,3.39,3.39,0,0,0-3,1.58,10.21,10.21,0,0,0-1.42,4.83"></path><path class="cls-1" d="M258.69,55H252.1l3.76-21.52h6.58ZM256.44,28a3,3,0,0,1,1-2.44,3.72,3.72,0,0,1,2.57-1,3.79,3.79,0,0,1,2.57.89,2.94,2.94,0,0,1,1.07,2.27,3,3,0,0,1-1,2.43,3.71,3.71,0,0,1-2.6,1,3.86,3.86,0,0,1-2.55-.86A2.93,2.93,0,0,1,256.44,28"></path><path class="cls-1" d="M273.2,33.06a9.11,9.11,0,0,1,5,1.44,8.18,8.18,0,0,1,3.11,3.91A12.08,12.08,0,0,1,282,44l0,.43a12.73,12.73,0,0,1-3.69,8,10.41,10.41,0,0,1-7.75,3,9,9,0,0,1-5-1.42,8.21,8.21,0,0,1-3.1-3.86,11.79,11.79,0,0,1-.73-5.53,13.33,13.33,0,0,1,3.64-8.43,10.39,10.39,0,0,1,7.81-3.06m-4.88,11.5-.06,1.17Q268,50.16,271,50.24c2.58.08,4.08-2,4.49-6.25l.09-1.81a4.94,4.94,0,0,0-.68-2.85,2.45,2.45,0,0,0-2.08-1.1,3.44,3.44,0,0,0-3,1.48,9.61,9.61,0,0,0-1.49,4.85"></path><text class="cls-3" transform="translate(277.26 30.78)"><tspan class="cls-4">T</tspan><tspan x="4.21" y="0">M</tspan></text><path class="cls-1" d="M51.69,1.68s21.63-4.91,37.06,13a40.13,40.13,0,0,1,8.14,38A40.21,40.21,0,0,1,65.76,80.14Z"></path><path class="cls-2" d="M51.76,1.67s-22,2.89-30.26,25A39.81,39.81,0,0,0,65.76,80.14Z"></path><path class="cls-5" d="M19,43.55,37,42.3,42.26,38a2.64,2.64,0,0,1,1-.27,1.58,1.58,0,0,1,1.22.39,5.44,5.44,0,0,1,.88,1c.16.32.87,1.68.87,1.68l3.2-18.39,1.25-6.94a3.68,3.68,0,0,1,.89-1.6c.59-.51,1.45-1.19,2.34,0a6.69,6.69,0,0,1,1,3l4.18,22.3,3.24,17.27,3.29-15.1a5.07,5.07,0,0,1,1.22-2.79c1-1,1.63.07,1.63.07a7.51,7.51,0,0,1,.65,1.09l2.28,4.74,2.76-1.84,24.43.86L74.93,44.7l-2.44,2.55a2.59,2.59,0,0,1-1.27.68c-.6,0-.89-1-.89-1L68.1,42.77,64.39,64.08a12.36,12.36,0,0,1-.74,2.46c-.39.71-.8,1.4-1.39,1.4s-1.49-1.43-1.84-2.62-.83-4.74-.83-4.74l-4-21.72-2.72-15L49,41.47a5.6,5.6,0,0,1-1.21,2.7,2.43,2.43,0,0,1-2.16.77,2,2,0,0,1-1.16-.8c-.54-.71-1.9-3.09-1.9-3.09l-4.45,3.39Z"></path><text class="cls-6" transform="translate(107.59 71.36)"><tspan class="cls-7">E</tspan><tspan class="cls-8" x="6.01" y="0">ngin</tspan><tspan class="cls-7" x="27.91" y="0">eer</tspan><tspan class="cls-8" x="44.4" y="0">ing </tspan><tspan class="cls-9" x="62.31" y="0">a</tspan><tspan class="cls-8" x="68.32" y="0" xml:space="preserve"> H</tspan><tspan class="cls-9" x="79.08" y="0">ea</tspan><tspan class="cls-10" x="91.17" y="0">l</tspan><tspan class="cls-9" x="93.78" y="0">t</tspan><tspan class="cls-8" x="97.51" y="0">hi</tspan><tspan class="cls-9" x="106.8" y="0">er</tspan><tspan class="cls-8" x="117.22" y="0"> </tspan><tspan class="cls-11" x="119.92" y="0">T</tspan><tspan class="cls-8" x="125.9" y="0">o</tspan><tspan class="cls-9" x="132.46" y="0">m</tspan><tspan class="cls-8" x="142.68" y="0">o</tspan><tspan class="cls-11" x="149.24" y="0">rro</tspan><tspan x="164.49" y="0">w</tspan></text></svg>