<svg xmlns="http://www.w3.org/2000/svg" width="50" height="34.022" viewBox="0 0 50 34.022"><g id="home-theater-set" transform="translate(-3.951 -12.917)"><path id="Path_34493" data-name="Path 34493" d="M6.389,38.93H8.541v5.46H7.114a.891.891,0,1,0,0,1.783h4.643a.891.891,0,1,0,0-1.783H10.323V38.038a.891.891,0,0,0-.891-.891H6.389a.656.656,0,0,1-.655-.655V24.481a4.9,4.9,0,0,0,7.4,0V36.493a.656.656,0,0,1-.656.655.891.891,0,1,0,0,1.783,2.441,2.441,0,0,0,2.439-2.438V15.355a2.441,2.441,0,0,0-2.439-2.438H6.389a2.441,2.441,0,0,0-2.438,2.438V36.493A2.441,2.441,0,0,0,6.389,38.93ZM9.432,24.384a3.144,3.144,0,1,1,3.144-3.144A3.144,3.144,0,0,1,9.432,24.384ZM6.389,14.7H12.48a.656.656,0,0,1,.656.655V18a4.9,4.9,0,0,0-7.4,0V15.355A.656.656,0,0,1,6.389,14.7Z" transform="translate(0 0)" fill="#a7a7a7"></path><path id="Path_34494" data-name="Path 34494" d="M9.767,30.443A2.734,2.734,0,1,0,12.5,33.177,2.734,2.734,0,0,0,9.767,30.443Zm0,3.684a.951.951,0,1,1,.951-.95.951.951,0,0,1-.951.95Zm20.358,5.617H19.74a2.4,2.4,0,0,0-2.4,2.394v3.209a2.4,2.4,0,0,0,2.394,2.393h19.1a2.4,2.4,0,0,0,2.4-2.393V42.138a2.4,2.4,0,0,0-2.394-2.393h-6.93V35h6.9a2.425,2.425,0,0,0,2.424-2.422V22.719A2.425,2.425,0,0,0,38.808,20.3H19.767a2.425,2.425,0,0,0-2.424,2.419v9.856A2.425,2.425,0,0,0,19.764,35h6.9v2.037a.891.891,0,1,0,1.783,0V35h1.673Zm9.325,2.394v3.209a.611.611,0,0,1-.611.611H19.74a.611.611,0,0,1-.614-.611V42.138a.611.611,0,0,1,.611-.611h19.1a.611.611,0,0,1,.613.611ZM19.126,32.575V22.719a.639.639,0,0,1,.638-.639H38.808a.64.64,0,0,1,.639.639v9.856a.64.64,0,0,1-.639.639H19.767a.639.639,0,0,1-.641-.639Z" transform="translate(-0.335 -0.802)" fill="#a7a7a7"></path><path id="Path_34495" data-name="Path 34495" d="M27.785,43.832h3.456a.891.891,0,0,0,0-1.783H27.785a.891.891,0,0,0,0,1.783ZM10.624,21.007a.922.922,0,0,0-1.257,0,.78.78,0,0,0-.2.285.969.969,0,0,0-.071.348.891.891,0,0,0,.071.339.78.78,0,0,0,.2.285.791.791,0,0,0,.285.2.9.9,0,0,0,.339.071.95.95,0,0,0,.348-.071.791.791,0,0,0,.285-.2.906.906,0,0,0,.2-.285.882.882,0,0,0,.062-.339.923.923,0,0,0-.062-.348.906.906,0,0,0-.2-.285Zm41.453-8.09H45.985a2.441,2.441,0,0,0-2.438,2.438V36.493a2.441,2.441,0,0,0,2.438,2.437h2.157v5.46H46.709a.891.891,0,1,0,0,1.783h4.641a.891.891,0,0,0,0-1.783H49.924V38.038a.891.891,0,0,0-.891-.891H45.985a.656.656,0,0,1-.655-.655V24.482a4.9,4.9,0,0,0,7.4,0V36.493a.655.655,0,0,1-.654.655.891.891,0,1,0,0,1.783,2.44,2.44,0,0,0,2.437-2.438V15.355A2.44,2.44,0,0,0,52.077,12.917ZM49.033,24.384a3.144,3.144,0,1,1,3.143-3.144A3.144,3.144,0,0,1,49.033,24.384Zm0-8.07A4.914,4.914,0,0,0,45.331,18V15.355a.656.656,0,0,1,.655-.655h6.092a.655.655,0,0,1,.654.655V18A4.912,4.912,0,0,0,49.033,16.315Z" transform="translate(-0.559)" fill="#a7a7a7"></path><path id="Path_34496" data-name="Path 34496" d="M53.567,30.6A2.734,2.734,0,1,0,56.3,33.33,2.734,2.734,0,0,0,53.567,30.6Zm0,3.684a.951.951,0,1,1,.949-.95.951.951,0,0,1-.949.95Zm.624-12.318a.922.922,0,0,0-1.257,0,.906.906,0,0,0-.2.285.956.956,0,0,0-.062.348.882.882,0,0,0,.062.339.906.906,0,0,0,.2.285.8.8,0,0,0,.285.2.988.988,0,0,0,.348.071.886.886,0,0,0,.624-.267.78.78,0,0,0,.2-.285.891.891,0,0,0,.071-.339.969.969,0,0,0-.071-.348.78.78,0,0,0-.2-.285Z" transform="translate(-5.093 -0.956)" fill="#a7a7a7"></path></g></svg>