<svg version="1.2" xmlns="http://www.w3.org/2000/svg" viewBox="0 0 83 83" width="83" height="83">
	<title>call-svg</title>
	<style>
		.s0 { fill: #ffffff } 
	</style>
	<path id="Layer" fill-rule="evenodd" class="s0" d="m41.5 83c-22.9 0-41.5-18.6-41.5-41.5 0-22.9 18.6-41.5 41.5-41.5 22.9 0 41.5 18.6 41.5 41.5 0 22.9-18.6 41.5-41.5 41.5zm8-20.2l5.2-5.2q0.6-0.6 0.9-1.4 0.3-0.8 0.3-1.7 0-0.8-0.3-1.6-0.3-0.8-0.9-1.4l-3-2.9q-0.6-0.6-1.4-0.9-0.8-0.4-1.6-0.4-0.9 0-1.7 0.4-0.8 0.3-1.4 0.9l-1.9 2q-1.9-1.2-3.6-2.5-1.7-1.3-3.3-2.9-1.5-1.5-2.9-3.2-1.3-1.8-2.4-3.6l1.9-2q0.6-0.6 0.9-1.4 0.4-0.8 0.4-1.6 0-0.9-0.4-1.7-0.3-0.8-0.9-1.4l-2.9-2.9q-0.6-0.7-1.4-1-0.8-0.4-1.7-0.4-0.9 0-1.7 0.4-0.8 0.3-1.4 1l-5.1 5.1q-0.3 0.3-0.4 0.6-0.2 0.4-0.2 0.8-0.1 0.3 0 0.7 0.1 0.3 0.3 0.7 2.8 4.1 5.9 7.9 3.2 3.9 6.7 7.4 3.5 3.5 7.3 6.6 3.8 3.2 8 5.9 0.3 0.2 0.6 0.3 0.4 0.1 0.8 0 0.4 0 0.7-0.2 0.3-0.1 0.6-0.4zm13.7-16.4c2-3.9 2.7-8.3 2-12.7-0.7-4.3-2.8-8.3-5.9-11.3-3.1-3.1-7.2-5.1-11.5-5.7-4.3-0.6-8.7 0.2-12.6 2.2l7.4 7.3q-2 0.3-3.8 1.2l15.8 15.6q1-1.8 1.2-3.8zm-7.4-10.6c-0.4-2.4-1.5-4.7-3.3-6.4-1.8-1.8-4-2.9-6.5-3.2q-1.7-0.3-3.4 0l13.3 13q0.2-1.7-0.1-3.4z"/>
</svg>