<?xml version="1.0" encoding="utf-8"?>
<!-- Generator: Adobe Illustrator 24.0.0, SVG Export Plug-In . SVG Version: 6.00 Build 0)  -->
<svg version="1.1" id="Layer_1" xmlns="http://www.w3.org/2000/svg" xmlns:xlink="http://www.w3.org/1999/xlink" x="0px" y="0px"
	 viewBox="0 0 167.7 54.9" style="enable-background:new 0 0 167.7 54.9;" xml:space="preserve">
<style type="text/css">
	.st0{fill:#808285;}
	.st1{fill:#204199;}
	.st2{fill:url(#SVGID_1_);}
	.st3{fill:url(#SVGID_2_);}
	.st4{fill:url(#SVGID_3_);}
	.st5{fill:url(#SVGID_4_);}
</style>
<title>logo</title>
<path class="st0" d="M7.6,51.8c-0.1,0.9-0.5,1.8-1.3,2.4c-0.9,0.6-2,0.9-3.1,0.9c-1.1,0-2.1-0.2-3.1-0.7l0.2-2.2
	c0.6,0.3,1.2,0.5,1.8,0.7c0.5,0.1,0.9,0.2,1.4,0.2c0.4,0,0.8-0.1,1.2-0.3c0.3-0.2,0.5-0.5,0.5-0.9c0-0.2,0-0.4-0.1-0.6
	C5,51.2,4.9,51,4.7,50.9c-0.4-0.3-0.9-0.5-1.4-0.8c-0.5-0.2-1-0.5-1.4-0.9c-0.7-0.6-1-1.5-0.9-2.4c0.1-0.9,0.5-1.7,1.2-2.3
	C3,43.9,4,43.6,5,43.7c0.6,0,1.1,0.1,1.6,0.2c0.5,0.2,1.1,0.3,1.6,0.6l-0.9,1.8c-0.5-0.2-0.9-0.4-1.4-0.5c-0.4-0.1-0.7-0.1-1.1-0.1
	c-0.4,0-0.7,0.1-1,0.3c-0.2,0.2-0.4,0.5-0.4,0.8c0,0.2,0,0.4,0.1,0.5c0.1,0.2,0.2,0.3,0.4,0.5c0.5,0.3,0.9,0.5,1.4,0.8
	c0.8,0.3,1.5,0.8,2,1.5C7.5,50.5,7.7,51.2,7.6,51.8z"/>
<path class="st0" d="M16.8,54.9h-2.3l0.4-4.9c0.1-0.5,0-0.9-0.2-1.4c-0.2-0.3-0.6-0.5-0.9-0.5c-0.5,0-1,0.2-1.4,0.7
	c-0.4,0.7-0.6,1.4-0.6,2.1l-0.4,4H9.2l0.7-8.5h1.8l0.2,1.1H12c0.3-0.4,0.6-0.7,1.1-0.9c0.5-0.2,1-0.3,1.5-0.3c1-0.1,2,0.4,2.5,1.2
	h0.2c0.3-0.4,0.6-0.7,1.1-0.9c0.5-0.2,1-0.3,1.5-0.3c0.8-0.1,1.6,0.2,2.2,0.7c0.5,0.7,0.7,1.5,0.5,2.4L22,54.9h-2.3l0.4-4.9
	c0.1-0.5,0-1-0.1-1.4c-0.2-0.3-0.6-0.5-0.9-0.5c-0.5,0-1,0.2-1.3,0.6c-0.4,0.6-0.6,1.2-0.6,1.9L16.8,54.9z"/>
<path class="st0" d="M29.8,54.9l-0.4-1.2h-0.1c-0.4,0.4-0.8,0.8-1.3,1C27.6,55,27,55.1,26.5,55c-0.7,0-1.4-0.2-1.9-0.7
	c-0.9-1.3-0.7-3,0.6-4c0.9-0.5,1.9-0.7,2.9-0.7h1.5v-0.4c0.1-0.9-0.3-1.3-1.2-1.3c-0.8,0-1.7,0.2-2.4,0.6L25.3,47
	c1-0.5,2.2-0.8,3.3-0.8c0.9-0.1,1.8,0.2,2.5,0.7c0.6,0.6,0.9,1.4,0.7,2.3l-0.5,5.7H29.8z M29.5,51h-0.9c-0.5,0-1.1,0.1-1.5,0.4
	c-0.3,0.2-0.6,0.6-0.6,1c-0.1,0.7,0.3,1,1,1c0.5,0,1-0.1,1.3-0.5c0.3-0.3,0.6-0.8,0.6-1.2L29.5,51z"/>
<path class="st0" d="M39.3,46.3c0.3,0,0.5,0,0.8,0.1l-0.4,2.2c-0.2-0.1-0.4-0.1-0.7-0.1c-0.6,0-1.3,0.2-1.8,0.6
	c-0.5,0.4-0.7,1-0.8,1.6l-0.4,4.3h-2.3l0.7-8.5h1.8l0.2,1.4h0.1c0.3-0.5,0.7-0.9,1.2-1.1C38.2,46.4,38.7,46.3,39.3,46.3z"/>
<path class="st0" d="M44.5,53.2c0.5,0,1-0.1,1.5-0.3l-0.2,1.7c-0.7,0.3-1.4,0.4-2.2,0.4c-0.7,0.1-1.5-0.2-2-0.7
	c-0.4-0.6-0.6-1.4-0.4-2.1l0.3-4.1h-1.1l0.1-1l1.4-0.8l0.8-1.8h1.5l-0.2,1.8h2.4l-0.2,1.7H44l-0.3,4.1c-0.1,0.3,0,0.5,0.2,0.7
	C44.1,53.1,44.3,53.2,44.5,53.2z"/>
<path class="st0" d="M58.6,51.8c-0.1,0.9-0.5,1.8-1.3,2.4c-0.9,0.6-2,0.9-3.1,0.9c-1.1,0-2.1-0.2-3.1-0.7l0.2-2.2
	c0.6,0.3,1.2,0.5,1.8,0.7c0.5,0.1,0.9,0.2,1.4,0.2c0.4,0,0.8-0.1,1.2-0.3c0.3-0.2,0.5-0.5,0.5-0.9c0-0.2,0-0.4-0.1-0.6
	c-0.1-0.2-0.3-0.4-0.5-0.5c-0.4-0.3-0.9-0.5-1.4-0.8c-0.5-0.2-1-0.5-1.4-0.9c-0.3-0.3-0.6-0.6-0.7-1c-0.2-0.4-0.2-0.9-0.2-1.4
	c0.1-0.9,0.5-1.7,1.2-2.3c0.8-0.6,1.8-0.9,2.9-0.9c0.6,0,1.1,0.1,1.6,0.2c0.5,0.2,1.1,0.3,1.6,0.6l-0.9,1.8
	c-0.5-0.2-0.9-0.4-1.4-0.5c-0.4-0.1-0.7-0.1-1.1-0.1c-0.4,0-0.7,0.1-1,0.3c-0.2,0.2-0.4,0.5-0.4,0.8c0,0.2,0,0.4,0.1,0.5
	c0.1,0.2,0.3,0.3,0.4,0.5c0.5,0.3,0.9,0.5,1.4,0.8c0.8,0.3,1.5,0.8,2,1.5C58.5,50.5,58.7,51.2,58.6,51.8z"/>
<path class="st0" d="M68.2,50.7c0,1.2-0.5,2.4-1.4,3.2c-0.8,0.8-2,1.2-3.1,1.2c-0.7,0-1.5-0.2-2.1-0.5c-0.6-0.4-1-0.9-1.3-1.5
	c-0.3-0.7-0.4-1.5-0.3-2.3c0-1.2,0.5-2.4,1.4-3.2c0.8-0.8,2-1.2,3.1-1.2c0.7,0,1.5,0.2,2.1,0.5c0.6,0.4,1,0.9,1.3,1.5
	C68.2,49.1,68.3,49.9,68.2,50.7z M62.3,50.7c-0.1,0.6,0,1.3,0.2,1.9c0.3,0.4,0.8,0.7,1.3,0.6c0.5,0,1.1-0.2,1.4-0.6
	c0.4-0.6,0.6-1.2,0.6-1.9c0.1-0.6,0-1.3-0.2-1.9c-0.3-0.4-0.8-0.7-1.3-0.6c-0.5,0-1.1,0.2-1.4,0.6C62.6,49.3,62.4,50,62.3,50.7z"/>
<path class="st0" d="M72.1,54.9h-2.3l1-11.8H73L72.1,54.9z"/>
<path class="st0" d="M79.8,54.9l-0.3-1.2h-0.1c-0.4,0.4-0.8,0.8-1.3,1c-0.5,0.2-1.1,0.3-1.6,0.3c-0.7,0-1.4-0.2-1.9-0.7
	c-0.9-1.3-0.7-3,0.6-4c0.9-0.5,1.9-0.7,2.9-0.7h1.5v-0.4c0.1-0.9-0.3-1.3-1.2-1.3c-0.8,0-1.7,0.2-2.4,0.6L75.4,47
	c1-0.5,2.2-0.8,3.3-0.8c0.9-0.1,1.8,0.2,2.6,0.7c0.6,0.6,0.9,1.4,0.8,2.3l-0.5,5.6L79.8,54.9z M79.5,51h-0.9c-0.5,0-1.1,0.1-1.5,0.4
	c-0.3,0.2-0.6,0.6-0.6,1c-0.1,0.7,0.3,1,1,1c0.5,0,1-0.1,1.3-0.5c0.3-0.3,0.6-0.8,0.6-1.2L79.5,51z"/>
<path class="st0" d="M89.3,46.3c0.3,0,0.5,0,0.8,0.1l-0.4,2.2c-0.2-0.1-0.5-0.1-0.7-0.1c-0.6,0-1.3,0.2-1.8,0.6
	c-0.5,0.4-0.7,1-0.8,1.6l-0.4,4.3h-2.3l0.7-8.5h1.8l0.2,1.4h0.1c0.3-0.5,0.7-0.9,1.2-1.1C88.3,46.4,88.8,46.3,89.3,46.3z"/>
<path class="st0" d="M101.9,51.8c-0.1,0.9-0.5,1.8-1.3,2.4c-0.9,0.6-2,0.9-3.1,0.9c-1.1,0-2.1-0.2-3.1-0.7l0.2-2.2
	c0.6,0.3,1.2,0.5,1.8,0.7c0.5,0.1,0.9,0.2,1.4,0.2c0.4,0,0.8-0.1,1.2-0.3c0.3-0.2,0.5-0.5,0.5-0.9c0-0.2,0-0.4-0.1-0.6
	c-0.1-0.2-0.3-0.4-0.5-0.5c-0.4-0.3-0.9-0.5-1.4-0.8c-0.5-0.2-1-0.5-1.4-0.9c-0.3-0.3-0.6-0.6-0.7-1c-0.2-0.4-0.2-0.9-0.2-1.4
	c0-0.9,0.5-1.8,1.2-2.3c0.8-0.6,1.8-0.9,2.8-0.8c0.6,0,1.1,0.1,1.6,0.2c0.5,0.1,1.1,0.3,1.6,0.6l-0.9,1.8c-0.5-0.2-0.9-0.4-1.4-0.5
	c-0.4-0.1-0.8-0.2-1.2-0.2c-0.4,0-0.7,0.1-1.1,0.3c-0.3,0.2-0.4,0.5-0.4,0.8c0,0.2,0,0.4,0.1,0.5c0.1,0.2,0.2,0.3,0.4,0.5
	c0.5,0.3,0.9,0.5,1.4,0.8c0.8,0.3,1.5,0.8,2,1.5C101.8,50.5,102,51.2,101.9,51.8z"/>
<path class="st0" d="M111.5,50.7c0,1.2-0.5,2.4-1.4,3.2c-0.8,0.8-2,1.2-3.2,1.2c-0.7,0-1.5-0.2-2.1-0.5c-0.6-0.4-1-0.9-1.3-1.5
	c-0.7-1.9-0.3-4,1.1-5.6c0.9-0.8,2-1.2,3.2-1.2c0.7,0,1.5,0.2,2.1,0.5c0.6,0.3,1,0.9,1.3,1.5C111.5,49.1,111.6,49.9,111.5,50.7z
	 M105.7,50.7c-0.1,0.6,0,1.3,0.3,1.9c0.3,0.4,0.8,0.7,1.3,0.6c0.5,0,1.1-0.2,1.4-0.6c0.4-0.6,0.6-1.2,0.6-1.9c0.1-0.6,0-1.3-0.2-1.9
	c-0.3-0.4-0.8-0.7-1.3-0.6c-0.5,0-1.1,0.2-1.4,0.6C105.9,49.3,105.7,50,105.7,50.7z"/>
<path class="st0" d="M115.4,54.9h-2.3l1-11.8h2.3L115.4,54.9z"/>
<path class="st0" d="M123.8,54.9l-0.2-1.1h-0.1c-0.3,0.4-0.7,0.7-1.1,0.9c-0.5,0.2-1,0.3-1.6,0.3c-0.8,0.1-1.6-0.2-2.2-0.8
	c-0.5-0.6-0.7-1.5-0.6-2.3l0.5-5.5h2.3l-0.4,5c-0.1,0.5,0,0.9,0.2,1.4c0.2,0.3,0.6,0.5,1,0.5c0.6,0,1.1-0.2,1.4-0.7
	c0.4-0.6,0.6-1.4,0.6-2.2l0.3-4h2.3l-0.7,8.5L123.8,54.9z"/>
<path class="st0" d="M131.7,53.2c0.5,0,1-0.1,1.5-0.3l-0.1,1.7c-0.7,0.3-1.4,0.4-2.2,0.4c-0.7,0.1-1.4-0.2-1.9-0.7
	c-0.4-0.6-0.6-1.4-0.4-2.1l0.4-4.1h-1.1l0.1-1l1.3-0.8l0.8-1.8h1.5l-0.2,1.8h2.4l-0.1,1.7h-2.4l-0.4,4.1c-0.1,0.3,0,0.6,0.2,0.8
	C131.2,53.2,131.5,53.2,131.7,53.2z"/>
<path class="st0" d="M137.1,54.9h-2.3l0.7-8.5h2.3L137.1,54.9z M135.6,44.2c0.1-0.8,0.5-1.1,1.4-1.1s1.2,0.4,1.2,1.1
	c0,0.3-0.2,0.6-0.4,0.8c-0.3,0.2-0.6,0.3-1,0.3C135.9,45.4,135.5,45,135.6,44.2z"/>
<path class="st0" d="M147.6,50.7c-0.1,1.2-0.5,2.4-1.4,3.2c-0.9,0.8-2,1.2-3.2,1.2c-0.7,0-1.5-0.2-2.1-0.5c-0.6-0.4-1-0.9-1.3-1.5
	c-0.7-1.9-0.3-4,1.1-5.6c0.9-0.8,2-1.2,3.1-1.2c0.7,0,1.5,0.2,2.1,0.5c0.6,0.4,1,0.9,1.3,1.5C147.5,49.1,147.6,49.9,147.6,50.7z
	 M141.7,50.7c-0.1,0.6,0,1.3,0.3,1.9c0.3,0.4,0.8,0.7,1.3,0.6c0.5,0,1.1-0.2,1.4-0.6c0.4-0.6,0.6-1.2,0.6-1.9c0.1-0.6,0-1.3-0.2-1.9
	c-0.3-0.4-0.8-0.7-1.3-0.6c-0.5,0-1.1,0.2-1.4,0.6C141.9,49.3,141.7,50,141.7,50.7z"/>
<path class="st0" d="M156.9,54.9h-2.3L155,50c0.1-0.5,0-0.9-0.2-1.4c-0.2-0.3-0.6-0.5-1-0.5c-0.6,0-1.1,0.2-1.5,0.7
	c-0.4,0.6-0.6,1.4-0.6,2.1l-0.4,4h-2.3l0.7-8.5h1.8l0.2,1.1h0.1c0.3-0.4,0.7-0.7,1.1-0.9c0.5-0.2,1-0.3,1.6-0.3
	c0.8-0.1,1.6,0.2,2.2,0.8c0.5,0.7,0.7,1.5,0.6,2.3L156.9,54.9z"/>
<path class="st0" d="M165.4,52.4c0,0.8-0.4,1.5-1.1,2c-0.8,0.5-1.8,0.7-2.8,0.7c-0.5,0-1,0-1.6-0.1c-0.4-0.1-0.8-0.2-1.2-0.4
	l0.2-1.9c0.4,0.2,0.9,0.4,1.4,0.5c0.5,0.1,0.9,0.2,1.4,0.2c0.8,0,1.3-0.2,1.3-0.7c0-0.2,0-0.3-0.1-0.5c-0.2-0.2-0.3-0.3-0.5-0.4
	c-0.3-0.2-0.7-0.4-1.1-0.5c-0.5-0.2-0.9-0.4-1.4-0.8c-0.3-0.2-0.5-0.5-0.6-0.8c-0.1-0.4-0.2-0.7-0.1-1.1c0-0.7,0.4-1.4,1-1.7
	c0.8-0.4,1.7-0.7,2.5-0.6c1,0,2,0.2,2.9,0.7l-0.8,1.6c-0.4-0.2-0.8-0.3-1.1-0.4c-0.4-0.1-0.7-0.2-1.1-0.2c-0.7,0-1,0.2-1.1,0.6
	c0,0.2,0.1,0.4,0.3,0.5c0.4,0.3,0.9,0.5,1.4,0.7c0.5,0.2,1,0.4,1.4,0.8c0.3,0.2,0.5,0.5,0.6,0.8C165.4,51.7,165.5,52,165.4,52.4z"/>
<g>
	<path class="st1" d="M15.8,7.6c1.8,0,3.3,0.4,4.3,1c1,0.7,1.8,1.7,2.3,2.9l0.5,1.1l5.6-3.6L28,8.2c-1.1-2.3-2.7-4-4.6-5
		c-1.9-1-4.3-1.5-7-1.5C11.5,1.7,7.7,3.2,5,6.1C2.3,9,0.6,13.4,0.1,19.2c-0.5,5.7,0.4,10.1,2.5,13c2.2,3,5.9,4.5,10.9,4.5
		c2.3,0,4.4-0.3,6.3-0.9c1.8-0.6,3.6-1.4,5.5-2.3l0.6-0.3l1.3-15.3h-14l-0.5,6h7.6l-0.5,5.6c-0.9,0.4-1.8,0.7-2.6,0.9
		c-1,0.2-2,0.4-3.1,0.4c-2.8,0-4.8-0.8-6-2.6c-1.3-1.8-1.7-4.8-1.4-8.9c0.4-4.1,1.3-7.1,2.8-9C11,8.5,13,7.6,15.8,7.6z"/>
	<path class="st1" d="M47.6,11.4C46,10,43.4,9.3,39.7,9.3c-2.4,0-4.4,0.4-6.1,1.2c-1.8,0.8-3.2,2-4.1,3.5l-0.6,0.9l4.8,3.1l0.7-1
		c0.3-0.5,0.9-1,1.6-1.4c0.7-0.4,1.8-0.7,3.2-0.7c1.6,0,2.8,0.3,3.6,0.8c0.6,0.4,0.9,1.4,0.8,2.8l0,0.1l-4.9,0.5
		c-2.5,0.3-4.4,0.8-5.8,1.5c-1.5,0.7-2.6,1.7-3.5,3c-0.9,1.2-1.4,2.8-1.5,4.6c-0.2,2.4,0.3,4.5,1.6,6.1c1.3,1.6,3.3,2.4,5.9,2.4
		c1.7,0,3.3-0.4,4.8-1.2c0.7-0.4,1.4-0.8,2.1-1.3L41.9,36H48l1.5-17.3C49.8,15.3,49.2,12.9,47.6,11.4z M36.9,31
		c-1.1,0-2-0.2-2.4-0.7c-0.4-0.4-0.6-1.2-0.5-2.2c0.1-1.2,0.5-2,1.4-2.5c0.6-0.5,2-1,5-1.3L43,24l-0.4,4.1L41.4,29
		c-0.5,0.4-1,0.7-1.6,1c-0.5,0.3-1.1,0.5-1.6,0.7C37.8,30.9,37.3,31,36.9,31z"/>
	<path class="st1" d="M67.8,10.9c-1.6-1-3.4-1.6-5.4-1.6c-3.4,0-6.1,1.3-8.3,3.9c-2,2.5-3.3,5.9-3.6,10c-0.4,4.2,0.2,7.5,1.7,9.8
		c1.6,2.4,4,3.7,7.2,3.7c1.6,0,3.1-0.3,4.6-1c0.6-0.3,1.2-0.6,1.7-0.9L65.6,36h6.1l3.1-36h-6.1L67.8,10.9z M62.4,15
		c1.6,0,3.2,0.7,4.9,2l-1,11.6c-0.7,0.6-1.6,1.2-2.5,1.6c-1,0.5-2,0.8-3.1,0.8c-1.1,0-4.6,0-3.9-7.9c0.3-2.9,0.9-5,2-6.3
		C59.8,15.6,61,15,62.4,15z"/>
	<g>
		<linearGradient id="SVGID_1_" gradientUnits="userSpaceOnUse" x1="98.1972" y1="18.0153" x2="211.2106" y2="28.4473">
			<stop  offset="0" style="stop-color:#51B748"/>
			<stop  offset="1" style="stop-color:#A6CE3D"/>
		</linearGradient>
		<polygon class="st2" points="98.6,36 120,36 120.5,30 105.5,30 106.2,21.3 119.1,21.3 119.6,15.3 106.8,15.3 107.4,8.4 122.4,8.4 
			122.9,2.4 101.5,2.4 		"/>
		<linearGradient id="SVGID_2_" gradientUnits="userSpaceOnUse" x1="98.0383" y1="19.7368" x2="211.0517" y2="30.1688">
			<stop  offset="0" style="stop-color:#51B748"/>
			<stop  offset="1" style="stop-color:#A6CE3D"/>
		</linearGradient>
		<path class="st3" d="M134.4,9.3c-3.7,0-6.7,1.2-8.9,3.5c-2.2,2.3-3.5,5.7-3.9,10.2c-0.4,4.4,0.3,7.8,2.1,10.1
			c1.8,2.3,4.6,3.5,8.3,3.5c3.7,0,6.7-1.2,8.9-3.6c2.1-2.3,3.4-5.7,3.8-10.1c0.4-4.4-0.3-7.8-2-10.2C140.9,10.5,138.2,9.3,134.4,9.3
			z M136.6,29.3c-0.9,1.2-2.3,1.8-4.1,1.8c-1.9,0-3.2-0.6-3.9-1.8c-0.8-1.3-1-3.4-0.8-6.3c0.3-3,0.9-5.1,1.9-6.4
			c1-1.2,2.3-1.7,4.1-1.7c1.8,0,3,0.6,3.8,1.7c0.8,1.3,1.1,3.4,0.8,6.4C138.3,25.9,137.6,28,136.6,29.3z"/>
		<linearGradient id="SVGID_3_" gradientUnits="userSpaceOnUse" x1="98.2398" y1="17.554" x2="211.2532" y2="27.986">
			<stop  offset="0" style="stop-color:#51B748"/>
			<stop  offset="1" style="stop-color:#A6CE3D"/>
		</linearGradient>
		<path class="st4" d="M166.5,11.6c-1.1-1.6-3.1-2.4-5.7-2.4c-1.7,0-3.4,0.5-5.1,1.4c-0.8,0.5-1.6,0.9-2.3,1.5l0.2-2.2h-6.1l-2.3,26
			h6.1l1.5-17.5c1.1-0.9,2.3-1.7,3.5-2.3c1.2-0.7,2.2-1,3-1c0.9,0,1.4,0.2,1.6,0.3c0.3,0.2,0.5,0.5,0.6,1.1c0.1,0.4,0.2,1.5-0.1,4.2
			L160.1,36h6.1l1.5-17C168,15.6,167.6,13.2,166.5,11.6z"/>
	</g>
	<g>
		<path class="st1" d="M91.9,7.5c-1.6-1-3.4-1.6-5.4-1.6c-3.3,0-6.1,1.2-8.2,3.7c-2.1,2.4-3.3,5.7-3.6,9.8c-0.4,4.2,0.2,7.4,1.7,9.7
			c1.5,2.4,4,3.6,7.2,3.6c1.6,0,3.2-0.3,4.6-1c0.6-0.3,1.2-0.6,1.7-0.9l0,0.5c-0.2,1.8-0.7,3.1-1.5,3.8c-0.8,0.7-2.2,1.1-4.2,1.1
			c-2.5,0-4.7-0.6-6.4-1.9l-1-0.7l-2.9,5.2l0.7,0.5c2.3,1.6,5.4,2.4,9,2.4c3.9,0,6.9-0.9,8.9-2.7c1.9-1.8,3.1-4.4,3.4-7.9l2.1-24.4
			H92L91.9,7.5z M86.5,11.7c1.6,0,3.2,0.7,4.8,2l-1,10.9c-1.9,1.6-3.8,2.4-5.6,2.4c-1.5,0-2.6-0.5-3.2-1.6c-0.7-1.2-1-3.2-0.7-6
			c0.2-2.5,0.9-4.5,1.9-5.8C83.7,12.3,84.9,11.7,86.5,11.7z"/>
		<linearGradient id="SVGID_4_" gradientUnits="userSpaceOnUse" x1="73.9419" y1="36.3354" x2="80.3038" y2="36.3354">
			<stop  offset="0" style="stop-color:#51B748"/>
			<stop  offset="1" style="stop-color:#A6CE3D"/>
		</linearGradient>
		<polygon class="st5" points="76.8,33.5 80.3,39.2 73.9,38.7 		"/>
	</g>
</g>
</svg>
