<svg xmlns="http://www.w3.org/2000/svg" width="36.392" height="36.392" viewBox="0 0 36.392 36.392"><g id="cinema-svgrepo-com" transform="translate(1 1)"><g id="Group_39851" data-name="Group 39851" transform="translate(-1 -1)"><g id="Group_39850" data-name="Group 39850" transform="translate(0 0)"><path id="Path_34517" data-name="Path 34517" d="M183.659,96.1a5.459,5.459,0,1,0-5.459-5.459A5.475,5.475,0,0,0,183.659,96.1Zm0-9.765a4.246,4.246,0,1,1-4.246,4.246A4.258,4.258,0,0,1,183.659,86.339Z" transform="translate(-165.463 -79.061)" fill="#a7a7a7"></path><path id="Path_34518" data-name="Path 34518" d="M229.7,131.395a2.626,2.626,0,0,0,.3.061.547.547,0,0,0,.3-.061l3.639-1.82a.583.583,0,0,0,.364-.546.7.7,0,0,0-.364-.546l-3.639-1.82a.551.551,0,0,0-.607,0,.724.724,0,0,0-.3.546v3.639A.723.723,0,0,0,229.7,131.395Zm.91-3.215,1.7.849-1.7.849Z" transform="translate(-213.024 -117.505)" fill="#a7a7a7"></path><path id="Path_34519" data-name="Path 34519" d="M34.786,348.825H33.573V344.58a1.781,1.781,0,0,0-1.213-1.722v-.1a2.426,2.426,0,0,0-4.852,0v.1a1.781,1.781,0,0,0-1.213,1.722v4.246H25.081V344.58a1.781,1.781,0,0,0-1.213-1.722v-.1a2.426,2.426,0,0,0-4.852,0v.1A1.782,1.782,0,0,0,17.8,344.58v4.246H16.59V344.58a1.781,1.781,0,0,0-1.213-1.722v-.1a2.426,2.426,0,0,0-4.852,0v.1a1.782,1.782,0,0,0-1.213,1.722v4.246H8.1V344.58a1.781,1.781,0,0,0-1.213-1.722v-.1a2.426,2.426,0,0,0-4.852,0v.1A1.781,1.781,0,0,0,.82,344.58v4.246H-.393a.573.573,0,0,0-.607.607v2.426a.573.573,0,0,0,.607.606H34.786a.573.573,0,0,0,.607-.606v-2.426A.573.573,0,0,0,34.786,348.825Zm-4.852-7.278a1.217,1.217,0,0,1,1.213,1.213H28.72A1.217,1.217,0,0,1,29.933,341.547Zm-2.426,3.033a.573.573,0,0,1,.607-.607h3.639a.573.573,0,0,1,.607.607v4.246H27.507V344.58Zm-6.065-3.033a1.217,1.217,0,0,1,1.213,1.213H20.229A1.217,1.217,0,0,1,21.442,341.547Zm-2.426,3.033a.573.573,0,0,1,.607-.607h3.639a.573.573,0,0,1,.607.607v4.246H19.016Zm-6.065-3.033a1.217,1.217,0,0,1,1.213,1.213H11.737A1.217,1.217,0,0,1,12.95,341.547Zm-2.426,3.033a.573.573,0,0,1,.607-.607H14.77a.573.573,0,0,1,.607.607v4.246H10.524V344.58Zm-6.065-3.033a1.217,1.217,0,0,1,1.213,1.213H3.246A1.217,1.217,0,0,1,4.459,341.547ZM2.033,344.58a.573.573,0,0,1,.607-.607H6.278a.573.573,0,0,1,.607.607v4.246H2.033Zm32.146,6.672H.213v-1.213H34.179Z" transform="translate(1 -316.072)" fill="#a7a7a7"></path><path id="Path_34520" data-name="Path 34520" d="M34.786-1H-.393A.573.573,0,0,0-1-.393V21.442a.573.573,0,0,0,.607.607H34.786a.573.573,0,0,0,.607-.607V-.393A.573.573,0,0,0,34.786-1ZM29.328.213c.033,6.386,1.355,10.707,3.6,12.179-.071.061-.14.125-.209.194-1.86,1.911-2.137,6.572-2.177,8.249H3.846c-.04-1.676-.317-6.328-2.177-8.188-.082-.082-.165-.158-.249-.229C3.694,10.972,5.032,6.638,5.064.213H29.328Zm4.851,0V11.677C32,11.009,30.6,6.642,30.54.213h3.639ZM.213.213H3.852C3.792,6.642,2.4,11.009.213,11.677V.213Zm0,20.622V13.072a3.334,3.334,0,0,1,.546.425c1.456,1.4,1.82,5.338,1.88,7.339H.213Zm33.966,0H31.753c.061-2,.425-5.944,1.88-7.339a1.672,1.672,0,0,1,.546-.425Z" transform="translate(1 1)" fill="#a7a7a7"></path></g></g></g></svg>