<?xml version="1.0" encoding="utf-8"?>
<!-- Generator: Adobe Illustrator 24.0.0, SVG Export Plug-In . SVG Version: 6.00 Build 0)  -->
<svg version="1.1" id="Layer_1" xmlns="http://www.w3.org/2000/svg" xmlns:xlink="http://www.w3.org/1999/xlink" x="0px" y="0px"
	 viewBox="0 0 33.8 33.8" style="enable-background:new 0 0 33.8 33.8;" xml:space="preserve">
<style type="text/css">
	.st0{fill:#A7A7A7;}
	.st1{fill:#FFFFFF;}
</style>
<g>
	<g>
		<g>
			<path class="st0" d="M16.9,25.5c-0.2,0-0.4,0-0.5,0.1v0.3c-0.9,0.2-1.5,1-1.5,2c0,1.1,0.9,2,2.1,2c1.1,0,2.1-0.9,2.1-2
				c0-0.9-0.7-1.7-1.5-2v-0.3C17.2,25.5,17.1,25.5,16.9,25.5z M17.9,27.8c0,0.5-0.4,1-1,1c-0.5,0-1-0.4-1-1c0-0.5,0.4-1,1-1
				C17.4,26.8,17.9,27.2,17.9,27.8z"/>
		</g>
		<path class="st0" d="M21.1,26.1l-0.3-0.7l0.7-0.5c-0.4-0.6-1-1.2-1.6-1.6L19.3,24l-0.7-0.3l-0.7-0.3l0.1-0.9
			c-0.4-0.1-0.8-0.1-1.2-0.1c-0.4,0-0.8,0-1.2,0.1l0.1,0.9l-0.7,0.3l-0.7,0.3l-0.6-0.7c-0.7,0.4-1.2,1-1.6,1.6l0.7,0.5l-0.3,0.7
			l-0.3,0.7l-0.9-0.1c-0.1,0.4-0.1,0.7-0.1,1.1c0,0.4,0,0.8,0.1,1.1l0.9-0.1l0.3,0.7l0.3,0.7l-0.7,0.5c0.4,0.6,1,1.2,1.6,1.6
			l0.6-0.7l0.7,0.3l0.7,0.3L15.7,33c0.4,0.1,0.8,0.1,1.2,0.1c0.4,0,0.8,0,1.2-0.1l-0.1-0.9l0.7-0.3l0.7-0.3l0.6,0.7
			c0.7-0.4,1.2-1,1.6-1.6l-0.7-0.5l0.3-0.7l0.3-0.7l0.9,0.1c0.1-0.4,0.1-0.7,0.1-1.1c0-0.4,0-0.8-0.1-1.1l-0.9,0.1L21.1,26.1z
			 M16.9,31.1c-1.9,0-3.4-1.5-3.4-3.3c0-1.8,1.5-3.3,3.4-3.3c1.9,0,3.4,1.5,3.4,3.3C20.3,29.6,18.8,31.1,16.9,31.1z"/>
	</g>
	<path class="st0" d="M26.7,5.2c-0.3,0-0.7,0-1,0.1c-1.3-3.1-4.3-5.2-8-5.2c-3,0-5.6,1.5-7.1,3.7c-0.3,0-0.5-0.1-0.8-0.1
		c-2.8,0-5.1,2.1-5.4,4.8C2,8.9,0,11,0,13.6c0,2.9,2.4,5.3,5.4,5.3l6.3,0v-7.2H22v7.2l4.7,0c3.9,0,7-3.1,7-6.9
		C33.8,8.3,30.6,5.2,26.7,5.2z"/>
	<path class="st0" d="M25.3,23.6c-0.4,0-0.8,0.1-1.1,0.3l-3.3-3.3v-7.8h-1.1v8.3l3.7,3.6c-0.1,0.3-0.2,0.6-0.2,0.9
		c0,1.1,0.9,2,2.1,2c1.1,0,2.1-0.9,2.1-2C27.4,24.5,26.5,23.6,25.3,23.6z M25.3,26.6c-0.5,0-1-0.4-1-1c0-0.5,0.4-1,1-1
		c0.5,0,1,0.4,1,1C26.3,26.2,25.9,26.6,25.3,26.6z M12.9,20.7l-3.3,3.3c-0.3-0.2-0.7-0.3-1.1-0.3c-1.1,0-2.1,0.9-2.1,2
		c0,1.1,0.9,2,2.1,2s2.1-0.9,2.1-2c0-0.3-0.1-0.7-0.2-0.9l3.7-3.6v-8.3h-1.1V20.7z M8.4,26.6c-0.5,0-1-0.4-1-1c0-0.5,0.4-1,1-1
		c0.5,0,1,0.4,1,1C9.4,26.2,9,26.6,8.4,26.6z M16.3,21.3v-8.5h1.1v8.5c-0.2,0-0.4,0-0.5,0C16.7,21.3,16.5,21.3,16.3,21.3z"/>
</g>
</svg>
