<?xml version="1.0" encoding="utf-8"?>
<!-- Generator: Adobe Illustrator 24.0.0, SVG Export Plug-In . SVG Version: 6.00 Build 0)  -->
<svg version="1.1" id="Layer_1" xmlns="http://www.w3.org/2000/svg" xmlns:xlink="http://www.w3.org/1999/xlink" x="0px" y="0px"
	 viewBox="0 0 33.8 33.8" style="enable-background:new 0 0 33.8 33.8;" xml:space="preserve">
<style type="text/css">
	.st0{fill:#A7A7A7;}
</style>
<g>
	<g>
		<path class="st0" d="M32.1,7.6c-1.4-0.8-3.1-0.2-3.9,1.2c-0.3,0.5-0.4,1.1-0.3,1.7L23.4,12c-0.6-1.3-1.5-2.4-2.8-3.1
			c-1.1-0.6-2.3-0.8-3.5-0.7l-0.4-2.4c0.6-0.2,1.1-0.6,1.4-1.2C18.8,3.3,18.3,1.7,17,1c-1.3-0.7-2.9-0.2-3.6,1.1
			c-0.7,1.3-0.2,2.9,1.1,3.6c0.4,0.2,0.7,0.3,1.1,0.3L16,8.4c-1.7,0.4-3.2,1.5-4.1,3.2c-0.2,0.4-0.4,0.7-0.5,1.1l-6.6-1.4
			c0-0.8-0.5-1.6-1.2-2c-1.1-0.6-2.6-0.2-3.2,1c-0.6,1.1-0.2,2.6,1,3.2c1.1,0.6,2.6,0.2,3.2-1c0,0,0,0,0-0.1l6.6,1.4
			c-0.3,2.1,0.5,4.2,2.1,5.6l-3,4.1c-1.1-0.5-2.4-0.1-2.9,1c-0.6,1.1-0.2,2.5,0.9,3.1s2.5,0.2,3.1-0.9c0.4-0.8,0.3-1.7-0.2-2.4
			l3-4.1c0.1,0.1,0.2,0.1,0.3,0.2c0.5,0.2,0.9,0.4,1.4,0.5l0-1.2c-0.3-0.1-0.6-0.2-0.9-0.4c-2.6-1.4-3.5-4.6-2.1-7.1
			c1.4-2.6,4.6-3.5,7.1-2.1c2.6,1.4,3.5,4.6,2.1,7.1c-0.6,1.1-1.5,1.9-2.6,2.4v1.2c0.7-0.2,1.4-0.6,2-1.1l3.8,3.9c0,0,0,0.1-0.1,0.1
			c-0.6,1.1-0.2,2.6,1,3.2s2.6,0.2,3.2-1c0.6-1.1,0.2-2.6-1-3.2c-0.7-0.4-1.6-0.4-2.3,0l-3.8-3.9c0.3-0.3,0.6-0.7,0.8-1.1
			c0.8-1.4,0.9-3,0.6-4.5l4.4-1.5c0.3,0.5,0.6,0.8,1.1,1.1c1.4,0.8,3.1,0.2,3.9-1.2C34,10.1,33.5,8.4,32.1,7.6z"/>
		<path class="st0" d="M21.3,16.6c1.1-2.1,0.3-4.6-1.7-5.8c-2.1-1.1-4.6-0.3-5.8,1.7c-1.1,2.1-0.3,4.6,1.7,5.8
			c0.2,0.1,0.3,0.2,0.5,0.2l0,0c0-0.2,0-1.1,0.6-1.6c0.3-0.3,0.7-0.5,1.2-0.5c0.5,0,0.9,0.2,1.2,0.5c0.4,0.5,0.5,1.1,0.5,1.4
			C20.3,17.9,20.9,17.3,21.3,16.6z"/>
	</g>
	<path class="st0" d="M23.1,24.1c0-0.4-0.2-1.1-0.3-1.6c-0.1-0.3-0.3-0.5-0.6-0.6c-0.1,0-0.2,0-0.3,0c-0.2,0-0.4,0.1-0.6,0.2
		c0,0-0.4-0.3-0.7-0.3c-0.2,0-0.4,0.1-0.5,0.3c0,0-0.4-0.3-0.8-0.4c0,0,0,0,0,0c-0.2,0-0.3,0.1-0.5,0.2c0,0-0.1,0-0.1,0.1
		c0,0,0,0,0,0v0v-0.4v-0.6v-0.3v-0.7V20v-0.9v-0.5v0c0,0,0.1-1.2-0.8-1.2c0,0,0,0,0,0c-0.9,0-0.9,1.2-0.9,1.2l0,0.1l0,0.5l0,0.9
		l0,0.1l0,0.7l0,0.3l0,0.6l0,0.3l0,0.2l-0.1,1.9l0,0.3c0,0.2-0.2,0.2-0.3,0.1c-0.1-0.1-0.2-0.3-0.3-0.4c-0.4-0.6-0.9-1-1.3-1
		c-0.2,0-0.3,0.1-0.5,0.2c-0.2,0.2-0.3,0.5-0.1,0.8c0.2,0.7,1.1,1.7,1.7,2.6c0.1,0.1,0.2,0.3,0.3,0.4c0.1,0.1,0.1,0.2,0.2,0.3
		c0,0,0,0,0,0c0.4,0.7,0.4,1.2,0.5,1.8c0,0.7-0.1,5.2-0.1,5.2s1.2,0.3,2.8,0.3c0.7,0,1.5,0,2.3-0.2l0,0c0-0.5,0-3.9,0.2-4.3l0.7-2.2
		C22.8,28,23.4,26.2,23.1,24.1z"/>
</g>
</svg>
