<?xml version="1.0" encoding="utf-8"?>
<!-- Generator: Adobe Illustrator 24.0.0, SVG Export Plug-In . SVG Version: 6.00 Build 0)  -->
<svg version="1.1" id="Layer_1" xmlns="http://www.w3.org/2000/svg" xmlns:xlink="http://www.w3.org/1999/xlink" x="0px" y="0px"
	 viewBox="0 0 33.8 33.8" style="enable-background:new 0 0 33.8 33.8;" xml:space="preserve">
<style type="text/css">
	.st0{fill-rule:evenodd;clip-rule:evenodd;fill:#A7A7A7;}
	.st1{fill:#A7A7A7;}
</style>
<path id="smart-home" class="st0" d="M32.1,31.2v0.8H1.7v-0.8H32.1z M4.1,5.6c0-0.4,0.1-0.9,0.4-1.2C4.8,4.2,5.2,4,5.7,4.1
	c0.5,0,0.8-0.4,0.8-0.9S6.1,2.4,5.6,2.4c-0.9,0-1.7,0.3-2.4,0.9C2.7,3.9,2.4,4.7,2.4,5.6c0,0.5,0.4,0.9,0.8,0.9
	C3.7,6.5,4.1,6.1,4.1,5.6L4.1,5.6L4.1,5.6z M28.1,4.1c0.4,0,0.9,0.1,1.2,0.4c0.3,0.3,0.4,0.8,0.4,1.2c0,0.5,0.4,0.8,0.9,0.8
	c0.5,0,0.8-0.4,0.8-0.9c0-0.9-0.3-1.7-0.9-2.4c-0.6-0.6-1.5-0.9-2.3-0.8c-0.5,0-0.9,0.4-0.9,0.8C27.2,3.7,27.6,4.1,28.1,4.1
	L28.1,4.1L28.1,4.1L28.1,4.1z M29.1,1.7c0.7,0.1,1.4,0.5,2,1c0.5,0.6,0.8,1.2,1,2c0.1,0.5,0.5,0.8,1,0.7c0.5-0.1,0.8-0.5,0.7-1
	c-0.2-1-0.7-2-1.4-2.8c-0.8-0.7-1.8-1.2-2.8-1.4c-0.5-0.1-0.9,0.2-1,0.7c0,0,0,0,0,0C28.4,1.1,28.7,1.6,29.1,1.7
	C29.1,1.7,29.1,1.7,29.1,1.7L29.1,1.7L29.1,1.7z M1.7,4.6c0.2-0.7,0.5-1.4,1-2c0.6-0.5,1.3-0.8,2-1c0.5-0.1,0.8-0.5,0.7-1
	S4.8-0.1,4.3,0c-1,0.2-2,0.7-2.8,1.4C0.8,2.2,0.3,3.2,0,4.3c-0.1,0.5,0.2,0.9,0.7,1C1.1,5.3,1.6,5,1.7,4.6L1.7,4.6L1.7,4.6z"/>
<g>
	<g>
		<path class="st1" d="M13.7,13c0-0.7,0.5-1.2,1.2-1.2c0.7,0,1.2,0.5,1.2,1.2c0,0.7-0.5,1.2-1.2,1.2C14.2,14.2,13.7,13.6,13.7,13z"
			/>
		<path class="st1" d="M26.7,10.3l-2.8-2.7c0,0.1,0,0.3,0,0.4c0,1.2-0.9,2.3-2,2.6l4.7,4.5V10.3z"/>
		<circle class="st1" cx="21.3" cy="8.1" r="1.7"/>
		<g>
			<path class="st1" d="M14.7,10.8c0.1,0,0.1,0,0.2,0c1.2,0,2.2,1,2.2,2.2c0,0.2,0,0.4-0.1,0.6l3.5-2.9c-1.1-0.3-1.8-1.3-1.8-2.5
				c0-0.2,0-0.4,0.1-0.6L14.7,10.8z"/>
			<path class="st1" d="M9.3,16.6l0.9-1.9l1.3-1.1l0.5,0.5l0,0l1,1.2l0,0l0.5,0.6l-1.2,1.2l-2,0.7l0.3,1.1l3-0.7l1.2-1l0.6-1.8
				l0.4-0.3c-0.3,0.1-0.6,0.2-0.9,0.2c-1.2,0-2.2-1-2.2-2.2c0-0.5,0.2-0.9,0.4-1.3l-2.7,0.5l-1.2,1l-1.1,2.9L9.3,16.6z"/>
		</g>
	</g>
	<path class="st1" d="M27,24H4.9C2.2,24,0,26.2,0,28.8l0,0c0,2.7,2.2,4.9,4.9,4.9H27c2.7,0,4.9-2.2,4.9-4.9l0,0
		C31.9,26.2,29.7,24,27,24z M5.3,31.3c-1.4,0-2.4-1.1-2.4-2.4c0-1.4,1.1-2.4,2.4-2.4c1.4,0,2.4,1.1,2.4,2.4
		C7.7,30.2,6.7,31.3,5.3,31.3z M12.4,31.3c-1.4,0-2.4-1.1-2.4-2.4c0-1.4,1.1-2.4,2.4-2.4s2.4,1.1,2.4,2.4
		C14.8,30.2,13.7,31.3,12.4,31.3z M19.5,31.3c-1.4,0-2.4-1.1-2.4-2.4c0-1.4,1.1-2.4,2.4-2.4c1.4,0,2.4,1.1,2.4,2.4
		C21.9,30.2,20.8,31.3,19.5,31.3z M26.6,31.3c-1.4,0-2.4-1.1-2.4-2.4c0-1.4,1.1-2.4,2.4-2.4c1.4,0,2.4,1.1,2.4,2.4
		C29,30.2,27.9,31.3,26.6,31.3z"/>
	<path class="st1" d="M27.6,10.2v15.1h1.3l2.4,4.4l-2.7,3l-1,0v1h0.5c3.1,0,5.6-2.5,5.6-5.6V15.8c0-3.1-2.5-5.6-5.6-5.6H27.6z"/>
	<rect x="4.3" y="19.6" class="st1" width="3.4" height="3.4"/>
	<rect x="13.2" y="19.6" class="st1" width="3.4" height="3.4"/>
	<rect x="22.2" y="19.6" class="st1" width="3.4" height="3.4"/>
</g>
</svg>
