<?xml version="1.0" encoding="utf-8"?>
<!-- Generator: Adobe Illustrator 24.0.0, SVG Export Plug-In . SVG Version: 6.00 Build 0)  -->
<svg version="1.1" id="Layer_1" xmlns="http://www.w3.org/2000/svg" xmlns:xlink="http://www.w3.org/1999/xlink" x="0px" y="0px"
	 viewBox="0 0 33.8 33.8" style="enable-background:new 0 0 33.8 33.8;" xml:space="preserve">
<style type="text/css">
	.st0{fill:#A7A7A7;}
	.st1{fill:#FFFFFF;}
</style>
<g>
	<g>
		<g>
			<rect x="8.2" y="4" class="st0" width="1.9" height="2"/>
			<polygon class="st0" points="9.5,0.7 8.9,0.7 8.7,4.4 9.6,4.4 			"/>
			<rect x="12.1" y="4" class="st0" width="1.9" height="2"/>
			<polygon class="st0" points="13.3,0.7 12.7,0.7 12.6,4.4 13.5,4.4 			"/>
			<rect x="15.9" y="4" class="st0" width="1.9" height="2"/>
			<polygon class="st0" points="17.2,0.7 16.6,0.7 16.4,4.4 17.3,4.4 			"/>
			<rect x="19.8" y="4" class="st0" width="1.9" height="2"/>
			<polygon class="st0" points="21,0.7 20.4,0.7 20.3,4.4 21.2,4.4 			"/>
			<rect x="23.7" y="4" class="st0" width="1.9" height="2"/>
			<polygon class="st0" points="24.9,0.7 24.3,0.7 24.1,4.4 25,4.4 			"/>
		</g>
		<g>
			
				<rect x="4.1" y="23.6" transform="matrix(6.123234e-17 -1 1 6.123234e-17 -19.5898 29.5686)" class="st0" width="1.9" height="2"/>
			<polygon class="st0" points="0.7,24.3 0.7,24.9 4.4,25 4.4,24.1 			"/>
			
				<rect x="4.1" y="19.7" transform="matrix(6.123234e-17 -1 1 6.123234e-17 -15.7385 25.7172)" class="st0" width="1.9" height="2"/>
			<polygon class="st0" points="0.7,20.4 0.7,21 4.4,21.2 4.4,20.3 			"/>
			
				<rect x="4.1" y="15.9" transform="matrix(6.123234e-17 -1 1 6.123234e-17 -11.8871 21.8659)" class="st0" width="1.9" height="2"/>
			<polygon class="st0" points="0.7,16.6 0.7,17.2 4.4,17.3 4.4,16.4 			"/>
			<rect x="4.1" y="12" transform="matrix(6.123234e-17 -1 1 6.123234e-17 -8.0358 18.0145)" class="st0" width="1.9" height="2"/>
			<polygon class="st0" points="0.7,12.7 0.7,13.3 4.4,13.5 4.4,12.6 			"/>
			<rect x="4.1" y="8.2" transform="matrix(6.123234e-17 -1 1 6.123234e-17 -4.1844 14.1632)" class="st0" width="1.9" height="2"/>
			<polygon class="st0" points="0.7,8.9 0.7,9.5 4.4,9.6 4.4,8.7 			"/>
		</g>
		<g>
			
				<rect x="23.7" y="27.8" transform="matrix(-1 -1.224647e-16 1.224647e-16 -1 49.1583 57.5272)" class="st0" width="1.9" height="2"/>
			<polygon class="st0" points="24.3,33.1 24.9,33.1 25,29.4 24.1,29.4 			"/>
			
				<rect x="19.8" y="27.8" transform="matrix(-1 -1.224647e-16 1.224647e-16 -1 41.4557 57.5272)" class="st0" width="1.9" height="2"/>
			<polygon class="st0" points="20.4,33.1 21,33.1 21.2,29.4 20.3,29.4 			"/>
			
				<rect x="15.9" y="27.8" transform="matrix(-1 -1.224647e-16 1.224647e-16 -1 33.753 57.5272)" class="st0" width="1.9" height="2"/>
			<polygon class="st0" points="16.6,33.1 17.2,33.1 17.3,29.4 16.4,29.4 			"/>
			
				<rect x="12.1" y="27.8" transform="matrix(-1 -1.224647e-16 1.224647e-16 -1 26.0503 57.5272)" class="st0" width="1.9" height="2"/>
			<polygon class="st0" points="12.7,33.1 13.3,33.1 13.5,29.4 12.6,29.4 			"/>
			
				<rect x="8.2" y="27.8" transform="matrix(-1 -1.224647e-16 1.224647e-16 -1 18.3477 57.5272)" class="st0" width="1.9" height="2"/>
			<polygon class="st0" points="8.9,33.1 9.5,33.1 9.6,29.4 8.7,29.4 			"/>
		</g>
		<g>
			
				<rect x="27.8" y="8.2" transform="matrix(-1.836970e-16 1 -1 -1.836970e-16 37.9374 -19.5898)" class="st0" width="1.9" height="2"/>
			<polygon class="st0" points="33.1,9.5 33.1,8.9 29.4,8.7 29.4,9.6 			"/>
			
				<rect x="27.8" y="12" transform="matrix(-1.836970e-16 1 -1 -1.836970e-16 41.7888 -15.7385)" class="st0" width="1.9" height="2"/>
			<polygon class="st0" points="33.1,13.3 33.1,12.7 29.4,12.6 29.4,13.5 			"/>
			
				<rect x="27.8" y="15.9" transform="matrix(-1.836970e-16 1 -1 -1.836970e-16 45.6401 -11.8871)" class="st0" width="1.9" height="2"/>
			<polygon class="st0" points="33.1,17.2 33.1,16.6 29.4,16.4 29.4,17.3 			"/>
			
				<rect x="27.8" y="19.7" transform="matrix(-1.836970e-16 1 -1 -1.836970e-16 49.4915 -8.0358)" class="st0" width="1.9" height="2"/>
			<polygon class="st0" points="33.1,21 33.1,20.4 29.4,20.3 29.4,21.2 			"/>
			
				<rect x="27.8" y="23.6" transform="matrix(-1.836970e-16 1 -1 -1.836970e-16 53.3428 -4.1844)" class="st0" width="1.9" height="2"/>
			<polygon class="st0" points="33.1,24.9 33.1,24.3 29.4,24.1 29.4,25 			"/>
		</g>
	</g>
	<g>
		<circle class="st0" cx="16.9" cy="16.9" r="2.9"/>
		<path class="st0" d="M7.4,8.5v16.7c0,0.6,0.5,1.2,1.2,1.2h16.7c0.6,0,1.2-0.5,1.2-1.2V8.5c0-0.6-0.5-1.2-1.2-1.2H8.5
			C7.9,7.4,7.4,7.9,7.4,8.5z M24,18.3l-2-0.3l-0.3,0.8l-0.3,0.8l1.6,1.2c-0.5,0.8-1.2,1.5-2.1,2.1l-1.2-1.6l-0.8,0.3L18,22l0.3,2
			c-1,0.2-2,0.2-2.9,0l0.3-2l-0.8-0.3l-0.8-0.3l-1.2,1.6c-0.8-0.5-1.5-1.2-2.1-2.1l1.6-1.2l-0.3-0.8L11.8,18l-2,0.3
			c-0.2-1-0.2-2,0-2.9l2,0.3l0.3-0.8l0.3-0.8l-1.6-1.2c0.5-0.8,1.2-1.5,2.1-2.1l1.2,1.6l0.8-0.3l0.8-0.3l-0.3-2c1-0.2,2-0.2,2.9,0
			l-0.3,2l0.8,0.3l0.8,0.3l1.2-1.6c0.8,0.5,1.5,1.2,2.1,2.1l-1.6,1.2l0.3,0.8l0.3,0.8l2-0.3C24.2,16.4,24.2,17.4,24,18.3z"/>
	</g>
</g>
</svg>
