<svg xmlns="http://www.w3.org/2000/svg" width="33.753" height="33.753" viewBox="0 0 33.753 33.753"><path id="smart-home" d="M6.531,33.533H4.844A.846.846,0,0,0,4,34.377v2.531a.846.846,0,0,0,.844.844H36.909a.846.846,0,0,0,.844-.844V34.377a.846.846,0,0,0-.844-.844H35.221V20.876a2.548,2.548,0,0,0,2.531-2.548h0a2.527,2.527,0,0,0-.97-2C33.787,13.957,21.4,4.186,21.4,4.186a.837.837,0,0,0-1.046,0S7.966,13.965,4.97,16.328a2.527,2.527,0,0,0-.97,2H4a2.542,2.542,0,0,0,2.531,2.548V33.533h0Zm29.533,1.688v.844H5.688v-.844Zm-2.531-1.688v-13.5a.829.829,0,0,1,.852-.844H35.2a.864.864,0,0,0,.861-.861h0a.835.835,0,0,0-.329-.675L20.876,5.915,6.017,17.653a.873.873,0,0,0-.329.675h0a.859.859,0,0,0,.861.861h.818a.829.829,0,0,1,.852.844v13.5Zm-6.75-13.5a2.583,2.583,0,0,0-.743-1.806,2.547,2.547,0,0,0-1.806-.743H17.518a2.583,2.583,0,0,0-1.806.743,2.533,2.533,0,0,0-.743,1.806v9.282a2.583,2.583,0,0,0,.743,1.806,2.547,2.547,0,0,0,1.806.743h6.717a2.583,2.583,0,0,0,1.806-.743,2.533,2.533,0,0,0,.743-1.806V20.032Zm-1.688,0v9.282a.864.864,0,0,1-.861.861H17.518a.864.864,0,0,1-.861-.861V20.032a.864.864,0,0,1,.861-.861h6.717a.864.864,0,0,1,.861.861Zm-2.531,4.219V25.1a1.688,1.688,0,0,1-3.375,0v-.844a.844.844,0,0,0-1.688,0V25.1a3.375,3.375,0,0,0,6.75,0v-.844a.844.844,0,0,0-1.688,0Zm-.844.844V21.72a.844.844,0,1,0-1.688,0V25.1a.844.844,0,0,0,1.688,0ZM20.876,9.063a3.375,3.375,0,1,0,3.375,3.375,3.374,3.374,0,0,0-3.375-3.375Zm0,1.688a1.688,1.688,0,1,1-1.688,1.688,1.693,1.693,0,0,1,1.688-1.688ZM8.092,9.637a1.644,1.644,0,0,1,.371-1.181,1.659,1.659,0,0,1,1.207-.38.844.844,0,1,0-.034-1.688,3.284,3.284,0,0,0-2.38.878A3.254,3.254,0,0,0,6.4,9.6a.844.844,0,1,0,1.688.034h0ZM32.074,8.076a1.7,1.7,0,0,1,1.207.371,1.615,1.615,0,0,1,.38,1.19.844.844,0,0,0,1.688-.025,3.232,3.232,0,0,0-.886-2.371A3.324,3.324,0,0,0,32.116,6.4a.844.844,0,1,0-.034,1.688h0Zm1.055-2.4a4.448,4.448,0,0,1,1.983.962,4.328,4.328,0,0,1,.97,1.958.844.844,0,1,0,1.654-.338A6.451,6.451,0,0,0,36.3,5.434a6.457,6.457,0,0,0-2.835-1.418.845.845,0,0,0-1,.667.832.832,0,0,0,.667.987h0ZM5.671,8.59a4.328,4.328,0,0,1,.97-1.958,4.347,4.347,0,0,1,1.983-.962.843.843,0,1,0-.329-1.654A6.457,6.457,0,0,0,5.46,5.434,6.347,6.347,0,0,0,4.025,8.253a.844.844,0,1,0,1.654.338h0Z" transform="translate(-4 -4)" fill="#a7a7a7" fill-rule="evenodd"></path></svg>