<svg xmlns="http://www.w3.org/2000/svg" width="37" height="37" viewBox="0 0 37 37"><g id="Group_39849" data-name="Group 39849" transform="translate(-773 -2836)"><g id="Light" transform="translate(773 2836)"><g id="Group_39794" data-name="Group 39794" transform="translate(0 0)"><path id="Path_34484" data-name="Path 34484" d="M14.415,22.919a8.5,8.5,0,1,1,8.5-8.5,8.5,8.5,0,0,1-8.5,8.5Zm0-15.613a7.108,7.108,0,1,0,7.108,7.108,7.108,7.108,0,0,0-7.108-7.108Z" transform="translate(4.085 4.085)" fill="#a7a7a7"></path><path id="Path_34485" data-name="Path 34485" d="M11.5,3.272V7.127a1.2,1.2,0,1,0,2.409,0V3.272a1.2,1.2,0,1,0-2.409,0Z" transform="translate(5.795 -2.068)" fill="#a7a7a7"></path><path id="Path_34486" data-name="Path 34486" d="M13.909,24.391V20.536a1.2,1.2,0,1,0-2.409,0v3.854a1.2,1.2,0,1,0,2.409,0Z" transform="translate(5.795 11.404)" fill="#a7a7a7"></path><path id="Path_34487" data-name="Path 34487" d="M24.391,11.5H20.536a1.2,1.2,0,1,0,0,2.409h3.854a1.2,1.2,0,1,0,0-2.409Z" transform="translate(11.404 5.795)" fill="#a7a7a7"></path><path id="Path_34488" data-name="Path 34488" d="M3.272,13.909H7.127a1.2,1.2,0,1,0,0-2.409H3.272a1.2,1.2,0,1,0,0,2.409Z" transform="translate(-2.068 5.795)" fill="#a7a7a7"></path><path id="Path_34489" data-name="Path 34489" d="M20.118,5.184l-2.39,2.39-.34.34a1.238,1.238,0,0,0-.352.85,1.224,1.224,0,0,0,.352.853,1.2,1.2,0,0,0,.853.352,1.241,1.241,0,0,0,.85-.352l2.39-2.39.34-.34a1.241,1.241,0,0,0,.354-.853,1.224,1.224,0,0,0-.354-.85,1.2,1.2,0,0,0-.85-.354,1.257,1.257,0,0,0-.853.354Z" transform="translate(7.847 2.148)" fill="#a7a7a7"></path><path id="Path_34490" data-name="Path 34490" d="M6.887,21.821l2.39-2.39.34-.34a1.238,1.238,0,0,0,.352-.85,1.224,1.224,0,0,0-.352-.853,1.2,1.2,0,0,0-.853-.352,1.241,1.241,0,0,0-.85.352l-2.39,2.39-.34.34a1.241,1.241,0,0,0-.354.853,1.224,1.224,0,0,0,.354.85,1.2,1.2,0,0,0,.85.354A1.258,1.258,0,0,0,6.887,21.821Z" transform="translate(2.148 7.847)" fill="#a7a7a7"></path><path id="Path_34491" data-name="Path 34491" d="M21.821,20.118l-2.39-2.39-.34-.34a1.238,1.238,0,0,0-.85-.352,1.224,1.224,0,0,0-.853.352,1.2,1.2,0,0,0-.352.853,1.241,1.241,0,0,0,.352.85l2.39,2.39.34.34a1.241,1.241,0,0,0,.853.354,1.224,1.224,0,0,0,.85-.354,1.2,1.2,0,0,0,.354-.85,1.258,1.258,0,0,0-.354-.853Z" transform="translate(7.847 7.847)" fill="#a7a7a7"></path><path id="Path_34492" data-name="Path 34492" d="M5.184,6.887l2.39,2.39.34.34a1.238,1.238,0,0,0,.85.352,1.224,1.224,0,0,0,.853-.352,1.2,1.2,0,0,0,.352-.853,1.241,1.241,0,0,0-.352-.85l-2.39-2.39-.34-.34a1.241,1.241,0,0,0-.853-.354,1.224,1.224,0,0,0-.85.354,1.2,1.2,0,0,0-.354.85,1.257,1.257,0,0,0,.354.853Z" transform="translate(2.148 2.148)" fill="#a7a7a7"></path></g></g></g></svg>