<svg version="1.2" xmlns="http://www.w3.org/2000/svg" viewBox="0 0 83 83" width="83" height="83">
	<title>location-svg</title>
	<style>
		.s0 { fill: #ffffff } 
	</style>
	<path id="Layer" fill-rule="evenodd" class="s0" d="m41.5 83c-22.9 0-41.5-18.6-41.5-41.5 0-22.9 18.6-41.5 41.5-41.5 22.9 0 41.5 18.6 41.5 41.5 0 22.9-18.6 41.5-41.5 41.5zm0-59.5c-1.8 0-3.6 0.4-5.3 1.1-1.7 0.7-3.2 1.7-4.5 3-1.3 1.3-2.3 2.8-3 4.5-0.7 1.6-1.1 3.5-1.1 5.3 0 5.8 11.6 23.1 13.9 23.1 2.3 0 13.9-17.4 13.9-23.1 0-1.8-0.4-3.7-1.1-5.3-0.7-1.7-1.7-3.2-3-4.5-1.3-1.3-2.8-2.3-4.5-3-1.7-0.7-3.5-1.1-5.3-1.1zm0 33.5c-1.9 0-11.6-14.8-11.6-19.6 0.1-3.1 1.3-6 3.5-8.1 2.1-2.2 5.1-3.4 8.1-3.4 3 0 6 1.2 8.1 3.4 2.2 2.1 3.4 5 3.5 8.1 0 4.7-9.7 19.6-11.6 19.6zm0-25.4c-2.3 0-4.4 1.4-5.3 3.6-0.9 2.1-0.4 4.6 1.2 6.3 1.7 1.6 4.2 2.1 6.3 1.2 2.2-0.9 3.6-3 3.6-5.3q0-1.2-0.5-2.2-0.4-1.1-1.2-1.9-0.8-0.8-1.9-1.3-1.1-0.4-2.2-0.4zm0 9.2c-1.4 0-2.7-0.8-3.2-2.1-0.5-1.3-0.2-2.8 0.7-3.8 1-1 2.5-1.3 3.8-0.7 1.3 0.5 2.2 1.8 2.2 3.2q0 0.7-0.3 1.3-0.3 0.6-0.7 1.1-0.5 0.5-1.2 0.8-0.6 0.2-1.3 0.2z"/>
</svg>